M48
; DRILL file {KiCad (5.1.2)-2} date 2020-11-16 4:05:31 PM
; FORMAT={-:-/ absolute / inch / decimal}
; #@! TF.CreationDate,2020-11-16T16:05:31-05:00
; #@! TF.GenerationSoftware,Kicad,Pcbnew,(5.1.2)-2
; #@! TF.FileFunction,Plated,1,4,PTH
FMAT,2
INCH
T1C0.0157
T2C0.0315
T3C0.0394
T4C0.0728
T5C0.1063
%
G90
G05
T1
X3.1929Y-3.128
X3.2008Y-3.8346
X3.2795Y-2.9941
X3.3169Y-2.6614
X3.3268Y-3.4724
X3.3268Y-3.685
X3.3287Y-4.0256
X3.3287Y-4.1476
X3.3486Y-3.2719
X3.3494Y-3.3219
X3.3524Y-3.372
X3.3543Y-2.8287
X3.3858Y-3.8346
X3.4173Y-2.7441
X3.4193Y-2.7854
X3.4528Y-3.1732
X3.4547Y-2.378
X3.4803Y-2.8858
X3.4803Y-3.8346
X3.5256Y-3.4724
X3.5256Y-3.7795
X3.5354Y-4.8406
X3.5374Y-2.7638
X3.5394Y-4.9843
X3.5453Y-3.1634
X3.5463Y-3.3219
X3.6083Y-4.0236
X3.6083Y-4.1476
X3.6196Y-3.0595
X3.6417Y-3.8346
X3.6506Y-2.5994
X3.6506Y-2.6762
X3.6654Y-2.5472
X3.6791Y-3.5709
X3.6809Y-3.2719
X3.7126Y-4.3937
X3.7205Y-3.5217
X3.7205Y-3.7992
X3.7549Y-3.6791
X3.7559Y-3.3681
X3.7559Y-3.4291
X3.7579Y-3.8366
X3.7618Y-2.8563
X3.7628Y-2.5522
X3.7628Y-2.7018
X3.8091Y-2.9803
X3.8209Y-2.6772
X3.8209Y-2.8524
X3.8431Y-3.0281
X3.8504Y-3.128
X3.8937Y-4.0256
X3.8937Y-4.1476
X3.9222Y-3.6604
X3.9232Y-3.8366
X3.9331Y-2.7657
X3.9829Y-3.0781
X3.9921Y-2.9075
X3.9961Y-4.3937
X4.0Y-3.4724
X4.0258Y-3.2719
X4.0315Y-3.1476
X4.0413Y-3.5217
X4.0413Y-3.6978
X4.0413Y-3.8406
X4.1083Y-2.8563
X4.1083Y-3.6791
X4.126Y-2.6004
X4.1339Y-2.2776
X4.1339Y-2.311
X4.1339Y-2.3445
X4.1772Y-2.5531
X4.1772Y-2.6004
X4.187Y-3.2323
X4.187Y-4.0256
X4.187Y-4.1457
X4.1969Y-3.6339
X4.2047Y-2.2795
X4.2264Y-2.5531
X4.2264Y-2.6004
X4.2283Y-2.9941
X4.2382Y-3.4823
X4.2382Y-3.7362
X4.2559Y-3.313
X4.2677Y-3.4272
X4.2756Y-2.5531
X4.2756Y-2.6004
X4.2795Y-3.5217
X4.2795Y-3.7657
X4.2894Y-4.3937
X4.3091Y-3.4803
X4.315Y-2.2205
X4.3169Y-3.5728
X4.3169Y-3.7992
X4.3268Y-2.6004
X4.3465Y-3.0787
X4.3504Y-2.874
X4.3583Y-3.4803
X4.3602Y-3.3189
X4.4154Y-3.7992
X4.4203Y-3.2254
X4.4203Y-3.6565
X4.4744Y-4.0256
X4.4744Y-4.1476
X4.4852Y-3.5699
X4.502Y-3.0315
X4.5098Y-3.2756
X4.5433Y-2.3346
X4.5482Y-3.3199
X4.5482Y-3.5699
X4.5768Y-4.3937
X4.5807Y-2.7795
X4.5925Y-2.3622
X4.614Y-2.8463
X4.6142Y-2.939
X4.6378Y-2.3406
X4.6988Y-3.2697
X4.7323Y-3.3543
X4.7323Y-3.5354
X4.7402Y-2.7795
X4.7559Y-3.876
X4.7559Y-3.998
X4.7795Y-2.4882
X4.7795Y-2.5236
X4.7795Y-2.5591
X4.7795Y-2.5945
X4.7795Y-2.6299
X4.8445Y-3.4449
X4.876Y-2.374
X4.8937Y-2.6063
X4.8976Y-3.7441
X4.9213Y-2.374
X4.937Y-3.1181
X4.9567Y-3.4665
X4.9567Y-3.5157
X4.9567Y-3.563
X4.9567Y-3.6142
X4.9744Y-2.3839
X4.9843Y-2.7992
X4.9921Y-4.1811
X5.0063Y-2.848
X5.0236Y-2.5945
X5.0276Y-3.7087
X5.0512Y-2.3839
X5.0748Y-3.0315
X5.0768Y-2.2224
X5.0866Y-2.5945
X5.1299Y-3.1358
X5.1516Y-2.3819
X5.1526Y-2.0994
X5.1693Y-3.189
X5.1752Y-3.7618
X5.1752Y-3.8406
X5.1752Y-3.9193
X5.1752Y-3.998
X5.1752Y-4.0768
X5.1752Y-4.1555
X5.1772Y-2.8366
X5.2539Y-3.7618
X5.2539Y-3.8406
X5.2539Y-3.9193
X5.2539Y-3.998
X5.2539Y-4.0768
X5.2677Y-2.7303
X5.3327Y-3.7618
X5.3327Y-3.8406
X5.3327Y-3.9193
X5.3327Y-3.998
X5.3327Y-4.0768
X5.3327Y-4.1555
X5.3366Y-2.6693
X5.3524Y-2.1299
X5.3563Y-2.4035
X5.3563Y-2.6181
X5.374Y-2.7717
X5.4114Y-2.5886
X5.4114Y-3.7618
X5.4114Y-3.8406
X5.4114Y-3.9193
X5.4114Y-3.998
X5.4114Y-4.0768
X5.4114Y-4.1555
X5.4469Y-3.2579
X5.4469Y-3.3366
X5.4469Y-3.4154
X5.4469Y-3.4941
X5.4469Y-3.5728
X5.4902Y-3.7618
X5.4902Y-3.8406
X5.4902Y-3.9193
X5.4902Y-3.998
X5.4902Y-4.0768
X5.4902Y-4.1555
X5.5256Y-3.2579
X5.5256Y-3.3366
X5.5256Y-3.4154
X5.5256Y-3.4941
X5.5256Y-3.5728
X5.5335Y-2.6713
X5.5354Y-2.5394
X5.5354Y-2.5984
X5.5669Y-2.9665
X5.5886Y-2.8937
X5.6043Y-3.2579
X5.6043Y-3.3366
X5.6043Y-3.4154
X5.6043Y-3.4941
X5.6043Y-3.5728
X5.6142Y-2.4921
X5.624Y-2.9823
X5.6437Y-4.1122
X5.6496Y-2.8287
X5.6516Y-2.7736
X5.6614Y-2.4941
X5.6634Y-2.6811
X5.6752Y-3.0807
X5.6772Y-2.9843
X5.6831Y-3.2579
X5.6831Y-3.3366
X5.6831Y-3.4154
X5.6831Y-3.4941
X5.6831Y-3.5728
X5.6929Y-4.9213
X5.7087Y-2.8583
X5.7106Y-2.6732
X5.7402Y-2.9764
X5.7579Y-2.4961
X5.7618Y-3.2579
X5.7618Y-3.3366
X5.7618Y-3.4154
X5.7618Y-3.4941
X5.7618Y-3.5728
X5.7717Y-2.8504
X5.7953Y-2.4567
X5.8031Y-2.9764
X5.8268Y-3.0591
X5.8346Y-2.4035
X5.8346Y-2.8524
X5.8406Y-3.2579
X5.8406Y-3.3366
X5.8406Y-3.4154
X5.8406Y-3.4941
X5.8406Y-3.5728
X5.8484Y-4.1142
X5.8543Y-3.748
X5.8661Y-2.687
X5.8681Y-2.7343
X5.8681Y-2.7972
X5.935Y-2.5177
X5.935Y-2.5689
X5.9429Y-2.187
X5.9724Y-2.4035
X5.9823Y-2.7028
X5.9823Y-2.7657
X5.9843Y-2.8287
X6.0157Y-2.8937
X6.0177Y-3.8012
X6.0177Y-3.8366
X6.0394Y-2.5335
X6.0413Y-3.5748
X6.0413Y-3.6122
X6.0846Y-3.0335
X6.1083Y-3.8898
X6.1398Y-2.7441
X6.1496Y-3.4528
X6.1516Y-3.1024
X6.1909Y-3.748
X6.2085Y-4.64
X6.2106Y-2.4961
X6.2598Y-2.4429
T3
X4.5669Y-3.1161
X3.4291Y-4.5354
X5.5343Y-2.1791
X5.5343Y-2.2791
X5.6343Y-2.1791
X5.6343Y-2.2791
X5.7343Y-2.1791
X5.7343Y-2.2791
X3.8685Y-4.9685
X3.9685Y-4.9685
X4.0685Y-4.9685
X4.1685Y-4.9685
X4.2685Y-4.9685
X4.3685Y-4.9685
X4.4685Y-4.9685
X5.0531Y-3.1713
X4.8287Y-2.8327
X5.2618Y-4.2224
X5.4547Y-2.8169
T4
X4.9213Y-4.4154
X4.9213Y-5.0256
X5.5906Y-4.4154
X5.5906Y-5.0256
T5
X6.1693Y-4.9882
X3.2795Y-2.0984
X6.1693Y-2.0984
X3.2795Y-4.9882
T2
G00X3.626Y-2.1181
M15
G01X3.626Y-2.2047
M16
G05
G00X3.8583Y-2.0512
M15
G01X3.7717Y-2.0512
M16
G05
G00X3.8661Y-2.2795
M15
G01X3.7638Y-2.2795
M16
G05
T0
M30
